<svg t="1708583017501" class="icon" viewBox="0 0 1024 1024" version="1.1" xmlns="http://www.w3.org/2000/svg" p-id="24445" data-spm-anchor-id="a313x.search_index.0.i35.1b623a81D5hcxt" width="16" height="16"><path d="M327.68 532.48c0 6.826667 3.413333 13.653333 10.24 17.066667h150.186667c6.826667 0 10.24-6.826667 10.24-10.24 0-6.826667-3.413333-13.653333-10.24-17.066667H341.333333c-6.826667-3.413333-10.24 3.413333-13.653333 10.24z" fill="#3F64FE" p-id="24446"></path><path d="M518.826667 37.546667C249.173333 37.546667 30.72 256 30.72 529.066667c0 269.653333 218.453333 491.52 491.52 491.52s491.52-218.453333 491.52-491.52c-3.413333-273.066667-221.866667-491.52-494.933333-491.52zM819.2 798.72c0 10.24-6.826667 17.066667-17.066667 17.066667H242.346667c-10.24 0-17.066667-6.826667-17.066667-17.066667V351.573333c0-10.24 6.826667-17.066667 17.066667-17.066666h88.746666V269.653333c-3.413333-17.066667 10.24-30.72 27.306667-30.72s27.306667 13.653333 27.306667 27.306667v64.853333h269.653333V273.066667c0-17.066667 13.653333-27.306667 27.306667-27.306667 17.066667 0 27.306667 13.653333 27.306666 27.306667v61.44h88.746667c10.24 0 17.066667 10.24 17.066667 20.48v443.733333z" fill="#3F64FE" p-id="24447"></path><path d="M337.92 648.533333H590.506667c6.826667 0 13.653333-6.826667 10.24-17.066666s-6.826667-13.653333-17.066667-10.24H337.92c-6.826667 0-10.24 6.826667-10.24 10.24-3.413333 10.24 3.413333 17.066667 10.24 17.066666zM337.92 447.146667h290.133333c6.826667 0 10.24-6.826667 10.24-10.24 0-6.826667-3.413333-13.653333-10.24-17.066667H337.92c-6.826667 0-10.24 6.826667-10.24 10.24-3.413333 6.826667 3.413333 13.653333 10.24 17.066667zM696.32 723.626667H337.92c-6.826667 0-10.24 6.826667-10.24 10.24 0 6.826667 3.413333 13.653333 10.24 17.066666h361.813333c6.826667 0 13.653333-6.826667 10.24-17.066666s-3.413333-13.653333-13.653333-10.24z" fill="#3F64FE" p-id="24448"></path></svg>