<svg t="1707122376006" class="icon" viewBox="0 0 1024 1024" version="1.1" xmlns="http://www.w3.org/2000/svg" p-id="11314" width="16" height="16"><path d="M930.133333 112.64H204.8c-13.653333 0-25.6-11.946667-25.6-25.6s11.946667-25.6 25.6-25.6h725.333333c13.653333 0 25.6 11.946667 25.6 25.6s-11.946667 25.6-25.6 25.6zM930.133333 965.973333H204.8c-13.653333 0-25.6-11.946667-25.6-25.6s11.946667-25.6 25.6-25.6h725.333333c13.653333 0 25.6 11.946667 25.6 25.6s-11.946667 25.6-25.6 25.6z" fill="#333333" p-id="11315"></path><path d="M844.8 965.973333H290.133333c-6.826667 0-15.36-3.413333-20.48-8.533333-5.12-5.12-6.826667-13.653333-5.12-20.48 59.733333-300.373333 158.72-447.146667 302.08-447.146667 143.36 0 242.346667 146.773333 302.08 447.146667 1.706667 6.826667 0 15.36-5.12 20.48s-11.946667 8.533333-18.773333 8.533333z m-523.946667-51.2h491.52c-54.613333-249.173333-136.533333-375.466667-245.76-375.466666S375.466667 665.6 320.853333 914.773333z" fill="#333333" p-id="11316"></path><path d="M566.613333 539.306667C423.253333 539.306667 324.266667 392.533333 264.533333 92.16c-1.706667-6.826667 0-15.36 5.12-20.48 5.12-5.12 11.946667-8.533333 20.48-8.533333h554.666667c6.826667 0 15.36 3.413333 20.48 8.533333s5.12 13.653333 3.413333 20.48C808.96 392.533333 709.973333 539.306667 566.613333 539.306667z m-245.76-426.666667c54.613333 249.173333 136.533333 375.466667 245.76 375.466667s191.146667-126.293333 245.76-375.466667H320.853333z" fill="#333333" p-id="11317"></path><path d="M631.466667 348.16h-128c-13.653333 0-25.6-11.946667-25.6-25.6s11.946667-25.6 25.6-25.6H631.466667c13.653333 0 25.6 11.946667 25.6 25.6s-11.946667 25.6-25.6 25.6zM674.133333 837.973333H460.8c-13.653333 0-25.6-11.946667-25.6-25.6s11.946667-25.6 25.6-25.6h213.333333c13.653333 0 25.6 11.946667 25.6 25.6s-11.946667 25.6-25.6 25.6z" fill="#333333" p-id="11318"></path><path d="M414.72 790.186667m-105.813333 0a105.813333 105.813333 0 1 0 211.626666 0 105.813333 105.813333 0 1 0-211.626666 0Z" fill="#333333" opacity=".3" p-id="11319"></path></svg>